<?xml version="1.0" encoding="UTF-8" standalone="no"?>
<!-- Created with Inkscape (http://www.inkscape.org/) -->

<svg
   width="151mm"
   height="96mm"
   viewBox="0 0 150.99999 96.000003"
   version="1.1"
   id="svg5"
   inkscape:version="1.1.2 (b8e25be833, 2022-02-05)"
   sodipodi:docname="Waste-Icon-Verde.svg"
   xmlns:inkscape="http://www.inkscape.org/namespaces/inkscape"
   xmlns:sodipodi="http://sodipodi.sourceforge.net/DTD/sodipodi-0.dtd"
   xmlns="http://www.w3.org/2000/svg"
   xmlns:svg="http://www.w3.org/2000/svg"
   xmlns:rdf="http://www.w3.org/1999/02/22-rdf-syntax-ns#"
   xmlns:cc="http://creativecommons.org/ns#"
   xmlns:dc="http://purl.org/dc/elements/1.1/">
  <title
     id="title824">Waste-Icon</title>
  <sodipodi:namedview
     id="namedview7"
     pagecolor="#ffffff"
     bordercolor="#666666"
     borderopacity="1.0"
     inkscape:pageshadow="2"
     inkscape:pageopacity="0.0"
     inkscape:pagecheckerboard="0"
     inkscape:document-units="mm"
     showgrid="false"
     inkscape:zoom="0.60454898"
     inkscape:cx="204.28452"
     inkscape:cy="298.56969"
     inkscape:window-width="1920"
     inkscape:window-height="991"
     inkscape:window-x="-9"
     inkscape:window-y="-9"
     inkscape:window-maximized="1"
     inkscape:current-layer="layer1"
     width="209mm"
     scale-x="1" />
  <defs
     id="defs2" />
  <g
     inkscape:label="Camada 1"
     inkscape:groupmode="layer"
     id="layer1">
    <path
       d="m 34.105264,10.083016 c 0.265098,-0.052 0.50618,-0.2529004 1.533177,-1.2429104 1.761184,-1.6972698 2.710741,-2.5541898 2.974939,-2.6844798 0.127424,-0.0624 0.283729,-0.15715 0.3477,-0.2071 0.381447,-0.30805 -0.555555,-0.29972 31.965804,-0.29972 25.497085,0 31.062386,0.0208 31.348206,0.10409 0.54965,0.15714 1.17496,0.55261 1.41266,0.89397 0.4451,0.63898 0.45557,0.78988 0.49625,6.9797502 l 0.0331,5.65683 0.29397,0.25705 c 0.23188,0.2019 0.38124,0.26642 0.70628,0.3018 0.22679,0.0208 6.71854,0.052 14.42625,0.0625 12.901,0.0208 14.03246,0.0312 14.24556,0.14258 0.51654,0.27682 1.70277,1.61516 1.94685,2.19629 0.09,0.21647 0.49333,0.87106 0.64002,1.04101 0.0714,0.0833 0.22493,0.33407 0.34293,0.5599 0.11807,0.22583 0.2976,0.51827 0.39863,0.64836 0.1014,0.13008 0.1855,0.27058 0.1855,0.31013 0,0.0416 0.12598,0.25184 0.27938,0.47143 0.1534,0.21958 0.43579,0.65147 0.62667,0.95952 0.1917,0.30805 0.42533,0.67749 0.52068,0.82215 0.44045,0.66501 0.94155,1.49986 1.16971,1.94736 0.13653,0.27059 0.30971,0.53908 0.38351,0.59736 0.0735,0.0624 0.22898,0.30284 0.34616,0.54221 0.11795,0.23935 0.26913,0.49537 0.33818,0.56925 0.1917,0.20398 1.0253,1.54087 1.44074,2.30827 0.11794,0.21959 0.30351,0.50995 0.40961,0.6442 0.10732,0.13425 0.27607,0.42565 0.37709,0.64628 0.1014,0.22062 0.27131,0.50162 0.37886,0.62546 0.10733,0.12384 0.27318,0.37568 0.36903,0.55989 0.0942,0.18525 0.21842,0.38714 0.27316,0.44854 0.0517,0.0624 0.21221,0.33094 0.34916,0.59736 0.13653,0.26746 0.30744,0.55261 0.37834,0.63483 0.1621,0.18941 0.6276,0.94287 0.85295,1.38194 0.0942,0.18524 0.24864,0.42045 0.3418,0.52243 0.0921,0.10409 0.25267,0.37153 0.35453,0.59737 0.10139,0.22583 0.26075,0.49536 0.35308,0.59735 0.0921,0.1041 0.23994,0.34552 0.32721,0.54013 0.087,0.19357 0.26033,0.47976 0.38528,0.63483 0.21365,0.26537 0.89611,1.3808 1.32728,2.16974 l 0.19358,0.3528 v 17.70375 c 0,14.37185 -0.0217,17.77534 -0.1014,18.08443 -0.0777,0.29243 -0.19356,0.46935 -0.50204,0.76283 -0.73132,0.69727 0.0973,0.64211 -9.93624,0.66604 -4.86242,0.0208 -8.916,0.0416 -9.00798,0.0624 -0.19761,0.0416 -0.72988,0.96784 -1.0552,1.8361 -0.11795,0.31118 -0.32648,0.7337 -0.46603,0.93871 -0.13881,0.20502 -0.36954,0.57135 -0.51135,0.81591 -0.14129,0.24352 -0.3829,0.58799 -0.53517,0.76596 -0.5514,0.64315 -1.5954,1.66563 -1.85948,1.82059 -0.14938,0.0833 -0.3742,0.25185 -0.50142,0.36633 -0.12857,0.11443 -0.42824,0.29452 -0.66797,0.40066 -0.23994,0.10619 -0.48165,0.24562 -0.53745,0.31118 -0.13073,0.15298 -0.76538,0.42668 -1.72857,0.74619 -0.42482,0.14048 -0.85564,0.29763 -0.95761,0.34758 -0.13363,0.0624 -0.82148,0.0936 -2.47078,0.0936 h -2.28532 l -0.84943,-0.28724 c -1.10873,-0.37465 -1.8458,-0.67957 -2.149,-0.88876 -0.13436,-0.0936 -0.41487,-0.2456 -0.62366,-0.33926 -0.20848,-0.0936 -0.50784,-0.27891 -0.66538,-0.41107 -0.15734,-0.13217 -0.50266,-0.40901 -0.76755,-0.61402 -0.72771,-0.56509 -1.29179,-1.1839 -1.9416,-2.13104 -0.78255,-1.14061 -1.03471,-1.5905 -1.1914,-2.12676 -0.0725,-0.24665 -0.1563,-0.48185 -0.18808,-0.52244 -0.029,-0.0416 -0.15631,-0.34342 -0.27721,-0.67229 -0.2151,-0.58175 -0.22089,-0.64315 -0.24864,-2.38112 -0.0362,-2.00563 0.0186,-2.43357 0.40153,-3.40028 0.13985,-0.35383 0.38062,-0.97929 0.53454,-1.38975 l 0.27939,-0.74722 -0.19285,-0.18732 -0.19284,-0.18733 -15.073886,-0.0208 c -8.29067,-0.0208 -15.18877,-10e-4 -15.32918,0.0208 -0.14057,0.0208 -0.32244,0.11037 -0.40454,0.18941 -0.1475,0.14257 -0.1475,0.14882 0.007,0.537 0.086,0.21646 0.18995,0.45999 0.23115,0.5422 0.0414,0.0833 0.14275,0.39963 0.22494,0.7056 0.13001,0.48496 0.19574,0.5984 0.50618,0.87419 0.2651,0.23519 0.44003,0.32677 0.68028,0.35696 0.17784,0.0208 5.04881,0.0624 10.82428,0.0936 l 10.500826,0.0521 0.46313,0.29348 c 0.53164,0.33718 0.53753,0.34239 0.85522,0.79302 0.48289,0.68477 0.49573,1.39442 0.0414,2.17869 -0.29978,0.5141 -0.65369,0.84089 -1.08653,1.00428 -0.32317,0.12181 -1.101291,0.13425 -11.118246,0.17067 -5.9241,0.0208 -10.82319,0.0624 -10.88688,0.10409 -0.23477,0.12385 -0.6158,0.80343 -0.80586,1.43805 -0.10733,0.35903 -0.2476,0.72952 -0.31116,0.82318 -0.14647,0.21544 -0.41727,0.67334 -0.57067,0.96369 -0.48817,0.9231 -1.91572,2.46209 -2.75329,2.96787 -0.17048,0.1041 -0.35929,0.24456 -0.41975,0.31534 -0.06,0.0728 -0.26841,0.20605 -0.46218,0.30075 -0.19388,0.0936 -0.54262,0.29452 -0.77521,0.4423 -0.23259,0.14882 -0.45846,0.26954 -0.50193,0.27058 -0.0435,0 -0.17018,0.0521 -0.28197,0.10409 -0.22567,0.11443 -1.46035,0.50787 -1.99782,0.63795 -0.875816,0.21126 -2.585808,0.27475 -3.952029,0.14674 l -4.03e-4,-0.005 c -0.587023,-0.052 -2.02002,-0.4527 -2.649649,-0.73473 -0.08488,-0.0416 -0.229283,-0.0936 -0.321305,-0.11443 -0.09213,-0.0208 -0.402874,-0.19565 -0.691262,-0.37778 -0.288492,-0.18316 -0.562388,-0.33301 -0.608761,-0.33301 -0.153407,0 -1.30114,-0.88148 -1.968128,-1.51027 -0.731528,-0.68998 -1.5766,-1.73776 -1.657558,-2.05454 -0.02899,-0.11443 -0.137673,-0.29348 -0.241393,-0.39963 -0.172039,-0.17484 -0.312196,-0.45896 -0.961741,-1.95007 -0.280107,-0.64315 -0.417573,-0.84088 -0.65793,-0.94599 -0.265098,-0.11763 -4.188705,-0.11763 -4.590937,0 -0.338178,0.0936 -0.507111,0.35071 -0.76724,1.14852 -0.244706,0.75033 -1.011842,2.2145 -1.350517,2.57708 -0.09627,0.10409 -0.281142,0.34031 -0.411568,0.52867 -0.508043,0.73058 -2.241062,2.25894 -2.970095,2.61809 -0.180735,0.0936 -0.432789,0.23832 -0.560318,0.33302 -0.293562,0.21646 -0.749021,0.40692 -2.007422,0.84193 l -1.003767,0.34655 -2.285169,0.001 c -1.598027,9.5e-4 -2.341004,-0.0312 -2.470788,-0.0833 -0.102484,-0.052 -0.480923,-0.179 -0.841874,-0.2914 -0.73836,-0.22894 -1.882533,-0.71807 -1.959722,-0.8388 -0.02899,-0.0416 -0.246155,-0.16442 -0.484442,-0.27161 -0.238495,-0.10619 -0.568081,-0.3091 -0.732253,-0.45271 -0.16438,-0.14257 -0.333416,-0.26122 -0.376063,-0.26122 -0.1797,0 -1.996875,-1.87472 -2.340611,-2.41484 -0.07763,-0.12279 -0.188083,-0.26642 -0.246155,-0.32261 -0.164689,-0.15923 -1.183445,-2.21961 -1.471896,-2.97661 -0.07763,-0.20501 -0.196054,-0.41316 -0.261474,-0.46207 -0.08902,-0.0624 -2.027835,-0.0936 -7.840279,-0.11345 -6.732999,-0.0208 -7.765739,-0.0416 -8.069996,-0.1405 -0.32203,-0.10717 -1.194336,-0.68477 -1.465799,-0.97096 -0.100408,-0.10618 -0.967849,-0.83672 -1.5390869,-1.29713 -0.492102,-0.3965 -1.146419,-0.95016 -1.345661,-1.13791 -0.121219,-0.11443 -0.301949,-0.26017 -0.400803,-0.32365 -0.171315,-0.10926 -1.134372,-0.93558 -1.737998,-1.49142 -0.156305,-0.14467 -0.505455,-0.45062 -0.7764534,-0.6827 -0.270998,-0.23207 -0.718486,-0.61402 -0.994555,-0.85025 -0.885453,-0.75763 -1.761981,-1.60196 -1.920471,-1.84911 -0.08488,-0.13217 -0.234457,-0.32366 -0.333002,-0.42565 l -0.178975,-0.18524 -0.04761,-3.21399 c -0.06417,-4.33878 -0.06728,-18.95383 -0.0037,-23.34715 l 0.05072,-3.55013 0.326068,-0.52139 c 0.360846,-0.57655 0.550793,-0.78053 2.652319,-2.84714 l 1.4530564,-1.42952 m 3.9668249,-3.93373 c 0.179285,-0.1041 1.298873,-1.1304 2.48795,-2.28454 1.189067,-1.15445 2.415171,-2.34064 2.724687,-2.63599 m 52.637378,57.01146 c 1.00055,-0.179 1.535256,-0.33615 1.664346,-0.48705 0.0508,-0.0624 0.31292,-0.21022 0.58164,-0.33406 0.37793,-0.17484 0.62843,-0.37361 1.10898,-0.88044 0.69138,-0.72953 0.90275,-1.03029 1.37531,-1.95515 0.29761,-0.5828 0.33125,-0.70872 0.4065,-1.53139 0.0879,-0.95328 0.0435,-1.97795 -0.11572,-2.6517 -0.1014,-0.42981 -0.66114,-1.50558 -0.95232,-1.82955 -0.0931,-0.10409 -0.16945,-0.21647 -0.16945,-0.24976 0,-0.13633 -1.16454,-1.11594 -1.69773,-1.4291 -1.222616,-0.71807 -1.798746,-0.8617 -3.436867,-0.85961 -1.222128,0.001 -2.220386,0.16652 -2.663857,0.43918 -0.92748,0.57134 -1.254623,0.80133 -1.737233,1.22365 -0.531644,0.46518 -0.659793,0.61713 -0.954806,1.13728 -0.08177,0.14464 -0.220172,0.32469 -0.308158,0.4017 -0.168727,0.14674 -0.249053,0.3861 -0.587334,1.74526 -0.251227,1.00844 -0.238081,1.37476 0.09523,2.70894 0.241394,0.96472 0.318097,1.20585 0.404323,1.26975 0.02899,0.0208 0.226073,0.28931 0.440967,0.59736 0.565803,0.81175 1.421475,1.61558 2.008778,1.887 0.266236,0.12181 0.483717,0.25184 0.483717,0.28723 0,0.1405 0.508767,0.30181 1.408143,0.44958 0.52078,0.0833 0.961329,0.16859 0.979027,0.18524 0.08077,0.0728 0.893424,0.0208 1.666504,-0.12181 z m -1.514441,-3.96392 c -0.627595,-0.0624 -0.871267,-0.18108 -1.290618,-0.62129 -0.384035,-0.40275 -0.473057,-0.59737 -0.550277,-1.20035 -0.05797,-0.45582 0.06003,-1.27454 0.197917,-1.3706 0.0383,-0.0312 0.166864,-0.17483 0.285593,-0.32885 0.236217,-0.30702 0.94166,-0.68583 1.50034,-0.80759 0.630608,-0.13633 1.573336,0.33823 2.090316,1.05226 0.27793,0.38401 0.28517,0.41107 0.28517,1.07357 0,0.63171 -0.0187,0.70768 -0.2505,1.09024 -0.53102,0.87107 -1.23742,1.2171 -2.267632,1.11209 z m 52.129393,4.00608 c 1.14667,-0.13218 1.85686,-0.29974 2.06526,-0.48705 0.0839,-0.0728 0.36157,-0.23937 0.61756,-0.36426 0.53341,-0.26017 1.58652,-1.18598 1.79281,-1.5754 0.0777,-0.14466 0.24502,-0.3913 0.3742,-0.54845 0.24978,-0.30284 0.36478,-0.5755 0.6216,-1.4704 0.26943,-0.94184 0.34915,-1.66096 0.25483,-2.30671 -0.10917,-0.74826 -0.58216,-2.15529 -0.83318,-2.47946 -0.10917,-0.14051 -0.28226,-0.41525 -0.38527,-0.60882 -0.10917,-0.20501 -0.28372,-0.4017 -0.41778,-0.46831 -0.12598,-0.0624 -0.28662,-0.19774 -0.35494,-0.29868 -0.0694,-0.10409 -0.24357,-0.25497 -0.38869,-0.34239 -0.14533,-0.0833 -0.30671,-0.19773 -0.35899,-0.24352 -0.14936,-0.13426 -0.71423,-0.49746 -0.77728,-0.49746 -0.029,0 -0.15123,-0.0624 -0.26622,-0.14882 -0.54449,-0.38922 -3.13811,-0.55053 -4.37868,-0.27266 -0.33994,0.0728 -0.66983,0.179 -0.7335,0.22687 -0.0642,0.0521 -0.24977,0.14674 -0.41373,0.21855 -0.55381,0.24248 -1.43316,0.85337 -1.80772,1.25612 -0.51829,0.55781 -1.04914,1.41785 -1.35786,2.20159 -0.31478,0.79926 -0.40101,1.72144 -0.27793,2.97859 0.0735,0.7493 0.10917,0.86899 0.46487,1.56408 0.21221,0.41419 0.47183,0.89187 0.57824,1.06275 0.28662,0.46103 1.39118,1.5034 1.8005,1.69842 0.19688,0.0936 0.53113,0.27475 0.74374,0.40275 0.25558,0.15507 0.5951,0.27058 1.00377,0.34447 0.90222,0.16339 1.38434,0.25081 1.43074,0.26017 0.0217,0 0.47419,-0.0416 1.00378,-0.10409 z m -1.54877,-4.09848 c -0.36664,-0.12594 -1.00947,-0.80239 -1.17209,-1.23157 -0.15341,-0.40483 -0.17566,-1.07317 -0.0517,-1.55023 0.20453,-0.78572 1.29599,-1.50797 2.16743,-1.4345 0.72605,0.0624 1.48827,0.49746 1.8273,1.04664 0.17452,0.28202 0.1976,0.40483 0.20051,1.02924 0.004,0.91061 -0.15735,1.39663 -0.56075,1.6899 -0.15702,0.11344 -0.30567,0.23519 -0.3305,0.27058 -0.17381,0.24248 -1.55353,0.36216 -2.08004,0.17899 z m -76.430824,4.05466 c 0.807507,-0.10409 1.330828,-0.25601 1.730255,-0.51828 0.169762,-0.11234 0.466535,-0.26953 0.659379,-0.35175 0.379169,-0.16131 1.48347,-1.14643 1.808036,-1.6135 0.291079,-0.41835 0.859987,-1.66012 1.016396,-2.21804 0.209303,-0.74618 0.189947,-2.107 -0.03934,-2.87212 -0.09833,-0.32678 -0.223072,-0.66293 -0.27752,-0.74722 -0.05382,-0.0833 -0.196468,-0.37153 -0.316647,-0.639 -0.119761,-0.26745 -0.345113,-0.65355 -0.500176,-0.85857 -0.298014,-0.39442 -1.096578,-1.15787 -1.21069,-1.15787 -0.03726,0 -0.134775,-0.0624 -0.216964,-0.1301 -0.929446,-0.81174 -2.362079,-1.19742 -4.12611,-1.11043 -1.544935,0.0728 -1.876033,0.18733 -3.517557,1.18963 -0.429579,0.26226 -1.192399,0.946 -1.192399,1.06952 0,0.0416 -0.127425,0.23624 -0.283006,0.42878 -0.28994,0.36008 -0.719209,1.41045 -0.919507,2.2503 -0.127426,0.53492 -0.14202,1.70394 -0.02899,2.32065 0.124836,0.67958 0.625426,1.92602 0.882864,2.19889 0.09627,0.1041 0.237356,0.30389 0.312609,0.44854 0.198643,0.38195 1.166864,1.23906 1.648086,1.46001 0.228558,0.10618 0.523881,0.2685 0.656274,0.36424 0.322444,0.23311 0.667247,0.33198 1.569065,0.45063 0.961637,0.12592 1.532771,0.13633 2.346334,0.0312 z m -1.857079,-4.04145 c -0.435894,-0.12181 -0.994969,-0.62963 -1.211094,-1.10127 -0.330519,-0.7212 -0.368611,-1.04132 -0.18001,-1.50704 0.2976,-0.73473 0.572117,-1.06869 1.098182,-1.33553 0.710618,-0.36008 1.216457,-0.38609 1.847256,-0.0936 0.485063,0.22376 0.618491,0.32991 1.06305,0.84609 0.316647,0.36737 0.390866,0.59217 0.390866,1.17932 0,0.62651 -0.159618,0.9689 -0.712688,1.52661 -0.277209,0.27994 -0.505249,0.43605 -0.715692,0.49224 -0.374821,0.10409 -1.214375,0.0936 -1.579808,0 z m -10.438658,-4.50644 c 0.247914,-0.25289 0.727284,-1.23156 1.169865,-2.38985 0.167277,-0.4371 0.124836,-0.52244 -0.347287,-0.70352 -0.277933,-0.10619 -1.199667,-0.11443 -9.175775,-0.0833 l -8.866955,0.0416 -0.146471,0.17483 c -0.103718,0.12385 -0.125666,0.21126 -0.07557,0.29868 0.09833,0.17067 0.658759,0.72017 1.206633,1.1813 0.251641,0.2123 0.683292,0.57759 0.959258,0.81175 0.276071,0.23415 0.675631,0.52347 0.887936,0.64211 l 0.386001,0.21542 6.927676,-0.0208 c 6.81436,-0.0208 6.930087,-0.0208 7.074364,-0.16859 z m 27.115604,0.0624 c 0.370163,-0.24872 0.463842,-0.37465 0.740947,-0.99803 0.153718,-0.34656 0.308262,-0.66397 0.342526,-0.70663 0.03622,-0.0416 0.120897,-0.32366 0.191706,-0.62547 0.127424,-0.54219 0.127114,-0.54948 -0.03622,-0.70766 -0.162102,-0.15715 -0.213651,-0.16131 -3.424869,-0.18109 -3.399821,-0.0208 -3.521615,-0.0208 -3.691811,0.29555 -0.09833,0.17693 0.02899,0.69832 0.310437,1.25811 0.124112,0.24768 0.250502,0.55886 0.280417,0.69206 0.02899,0.13217 0.125976,0.38298 0.213237,0.55678 0.249777,0.49746 0.422024,0.53075 2.833986,0.537 1.815384,0 2.069943,0 2.239167,-0.12181 z m 88.328637,0.0313 c 0.45794,-0.1509 0.57645,-0.49849 0.55442,-1.62047 -0.0217,-1.15008 -0.0942,-1.39746 -0.44801,-1.54003 -0.37886,-0.15297 -15.19388,-0.15507 -15.5723,0 -0.39459,0.15923 -0.46252,0.28307 -0.36376,0.65877 0.19171,0.72432 0.85721,2.06713 1.18467,2.38778 l 0.21841,0.21334 h 7.07823 c 5.27169,0 7.14718,-0.0312 7.34861,-0.0936 z M 34.522612,68.708976 c 1.658531,-0.0313 1.890018,-0.052 2.205309,-0.18526 0.193881,-0.0833 0.419539,-0.22478 0.501831,-0.31324 0.147197,-0.15715 0.150405,-0.55261 0.203404,-23.51438 0.05382,-23.32842 0.08177,-25.64875 0.32793,-26.56197 0.188809,-0.70247 0.454424,-1.07276 1.001904,-1.39849 0.311886,-0.18525 0.493242,-0.2352 0.975924,-0.26746 0.522431,-0.0313 0.642196,-0.0208 1.008426,0.14882 0.228557,0.10409 0.492826,0.26746 0.587231,0.36528 0.292528,0.30077 0.611452,0.69103 0.724178,0.88565 0.09212,0.15922 0.113549,3.97401 0.146472,25.17356 0.02587,16.4626 0.06521,25.02818 0.115722,25.10737 0.12815,0.19982 0.785149,0.43189 1.453864,0.51411 0.404219,0.0521 4.052347,0.0728 10.154255,0.0728 l 9.523384,-0.001 0.704615,-0.19565 c 0.685154,-0.19149 0.766723,-0.19565 2.946416,-0.2019 2.234821,0 2.483647,0.0208 3.507407,0.2862 0.36043,0.0936 2.2928,0.11246 14.34124,0.11443 9.31676,0 13.973615,-0.0208 14.071945,-0.0728 0.0808,-0.0416 0.23777,-0.18108 0.34874,-0.30805 l 0.20155,-0.23104 v -28.68333 -28.683 l -0.25093,-0.22583 c -0.13839,-0.12386 -0.33123,-0.25706 -0.42937,-0.29453 -0.10708,-0.0416 -11.713635,-0.0728 -29.001345,-0.0728 H 41.070039 l -0.377928,0.27163 c -0.422747,0.30387 -0.771794,0.63066 -3.852379,3.61392 -1.189067,1.15112 -2.50354,2.42036 -2.921081,2.8202 -3.920337,3.75464 -26.6793269,25.80496 -26.8854319,26.04827 -0.184771,0.21855 -0.293254,0.44438 -0.346149,0.72121 -0.04969,0.26121 -0.07038,4.63225 -0.05694,12.35434 0.01864,11.78145 0.02174,11.95492 0.174213,12.24955 0.293252,0.56718 -0.818376,0.52451 13.2418999,0.50474 6.943295,0 13.458066,-0.0312 14.477299,-0.052 z m 37.486502,-6.27271 c -0.19097,-0.0936 -0.46705,-0.24457 -0.613,-0.33095 -0.23155,-0.13633 -1.71631,-1.47467 -2.687626,-2.42139 -2.425876,-2.36436 -3.430022,-3.39892 -3.569257,-3.67721 -0.324308,-0.64731 -0.346873,-1.41441 -0.06107,-2.03394 0.202679,-0.43813 0.763312,-1.02196 3.641237,-3.79085 2.187306,-2.10418 2.535336,-2.40932 2.959666,-2.59561 0.7863,-0.3455 1.87563,-0.25809 2.40371,0.19357 0.10041,0.0833 0.34108,0.39026 0.53568,0.67751 0.57947,0.85545 0.54593,1.44396 -0.13105,2.30493 -0.19906,0.25289 -0.52543,0.66708 -0.72532,0.91998 -0.19978,0.25289 -0.36333,0.49017 -0.36333,0.52868 0,0.0416 0.0808,0.14257 0.17856,0.23102 l 0.17856,0.16236 6.0176,-9.4e-4 c 7.6525,-10e-4 7.09521,0.10828 7.01864,-1.38122 l -0.0496,-0.97097 0.37628,-0.59528 c 0.31479,-0.49745 0.45028,-0.63795 0.82914,-0.85545 0.41726,-0.23936 0.50214,-0.26017 1.07838,-0.25914 0.54138,0 0.67376,0.0312 0.98328,0.20398 0.82385,0.46831 1.2261,1.03134 1.45604,2.03696 0.29874,1.30774 0.12091,2.87243 -0.41498,3.65275 -0.14098,0.20502 -0.33374,0.49954 -0.42824,0.65356 -0.0942,0.15298 -0.21842,0.30492 -0.27566,0.33614 -0.0569,0.0312 -0.30639,0.24457 -0.55369,0.47456 -0.2476,0.23 -0.62367,0.50058 -0.83597,0.60153 -0.2122,0.10409 -0.57719,0.28202 -0.81071,0.40378 l -0.42462,0.22063 -6.9609,0.0208 c -5.36032,0.0208 -6.9788,0.0416 -7.03868,0.11246 -0.0435,0.052 -0.1014,0.21126 -0.1293,0.358 -0.0466,0.24143 -0.0187,0.30596 0.3002,0.66604 0.19357,0.21959 0.51694,0.63691 0.7191,0.9283 0.35857,0.51619 0.36737,0.54326 0.36478,1.08982 -0.004,0.66189 -0.15123,0.99283 -0.67087,1.49871 -0.43589,0.42461 -1.22712,0.818 -1.64024,0.81487 -0.16975,-10e-4 -0.46518,-0.0833 -0.65638,-0.17484 z m -17.681603,-5.35138 c -0.190982,-0.0312 -0.697575,-0.22896 -1.125458,-0.43709 -1.394375,-0.67854 -2.367586,-1.7717 -2.818428,-3.16633 -0.232594,-0.72016 -0.243152,-0.80446 -0.204541,-1.62162 0.04347,-0.89604 0.277208,-1.80926 0.573256,-2.23407 0.195743,-0.28098 0.318406,-0.47872 0.376478,-0.60777 0.123392,-0.27369 0.534852,-1.06202 0.867337,-1.6622 0.199366,-0.36008 0.489514,-0.88459 0.645094,-1.16787 0.155581,-0.28307 0.372752,-0.65147 0.482578,-0.82007 0.109931,-0.16859 0.199782,-0.33615 0.199782,-0.37257 0,-0.0416 0.04865,-0.10618 0.108485,-0.15507 0.059,-0.052 0.198331,-0.27161 0.308572,-0.49641 0.109931,-0.22479 0.322031,-0.58071 0.470779,-0.78989 0.148955,-0.20917 0.270584,-0.43293 0.270584,-0.49642 0,-0.11652 0.363331,-0.76907 0.466948,-0.8388 0.03312,-0.0208 0.162102,-0.26538 0.292114,-0.54324 0.130013,-0.27787 0.303501,-0.59736 0.385484,-0.70976 0.08177,-0.11233 0.2976,-0.48913 0.479473,-0.8388 0.181873,-0.34967 0.442519,-0.80343 0.579363,-1.00844 0.283316,-0.42565 0.390866,-0.85962 0.267997,-1.08191 -0.102484,-0.18525 -0.535164,-0.19982 -1.158769,-0.0416 -0.674906,0.17483 -1.517505,0.14672 -1.974112,-0.0624 -0.860608,-0.4017 -1.40573,-1.28089 -1.325434,-2.1378 0.08281,-0.8794 0.55307,-1.50933 1.369251,-1.83257 0.276071,-0.11036 0.606071,-0.25913 0.733495,-0.33407 0.127425,-0.0728 0.613833,-0.20813 1.080989,-0.29868 0.467155,-0.0936 1.005735,-0.22999 1.196779,-0.31221 0.190982,-0.0833 0.764445,-0.24248 1.27401,-0.358 0.509595,-0.11652 1.33441,-0.33093 1.83294,-0.47767 2.128625,-0.62962 3.109837,-0.57968 3.899809,0.19772 0.327205,0.32159 0.458771,0.53805 0.739395,1.21534 0.18767,0.45374 0.36592,0.94079 0.395731,1.08315 0.142021,0.67749 0.311161,1.30754 0.580813,2.16383 0.161789,0.51411 0.421714,1.45469 0.5776,2.09159 0.15559,0.63691 0.339634,1.27548 0.408265,1.4193 0.0683,0.14466 0.140251,0.43502 0.158887,0.64836 0.0331,0.3861 -0.104854,1.14477 -0.209202,1.14477 -0.02902,0 -0.112512,0.11652 -0.1826,0.25809 -0.139114,0.28204 -0.868056,0.88148 -1.281271,1.05277 -0.430512,0.17901 -1.059437,0.14049 -1.470106,-0.0936 -0.76931,-0.43294 -1.01505,-0.69206 -1.400616,-1.48165 -0.200815,-0.41107 -0.38714,-0.81903 -0.414364,-0.90645 -0.02899,-0.0833 -0.11324,-0.22999 -0.190568,-0.31636 -0.133325,-0.14882 -0.147506,-0.1509 -0.259301,-0.0313 -0.06521,0.0728 -0.208165,0.30389 -0.318406,0.51619 -0.110239,0.21231 -0.236631,0.409 -0.280832,0.43501 -0.04451,0.0313 -0.188807,0.25602 -0.321304,0.50995 -0.132187,0.25392 -0.322859,0.5651 -0.422956,0.69206 -0.100408,0.12593 -0.182182,0.26018 -0.182182,0.29452 0,0.0728 -0.50411,0.91581 -0.889387,1.49164 -0.137258,0.20501 -0.31116,0.53283 -0.38569,0.72848 -0.07453,0.19566 -0.218723,0.44126 -0.319856,0.54741 -0.101446,0.10619 -0.267272,0.38922 -0.368404,0.63067 -0.101445,0.24144 -0.271722,0.54949 -0.379169,0.68582 -0.107336,0.13633 -0.276483,0.41523 -0.37596,0.62025 -0.09937,0.20502 -0.235906,0.45687 -0.302776,0.55989 -0.06728,0.1041 -0.343249,0.58696 -0.613833,1.07619 -0.270584,0.48913 -0.53092,0.92727 -0.578329,0.97305 -0.119045,0.11652 -0.552761,1.21627 -0.607934,1.54368 -0.04451,0.26434 -0.03624,0.2737 0.500902,0.62025 0.300498,0.19357 0.62936,0.38194 0.73101,0.4194 0.555556,0.20398 0.818065,0.45271 1.12345,1.06402 0.406599,0.81382 0.404426,1.07806 -0.01449,1.80425 -0.617871,1.06869 -1.599342,1.47406 -3.000477,1.23875 z m 28.800053,-12.67072 c -0.10634,-0.0208 -0.55794,-0.14881 -1.00377,-0.28932 -0.44593,-0.14049 -1.07134,-0.31012 -1.38984,-0.37776 -0.91443,-0.19566 -1.61637,-0.37882 -2.20052,-0.57655 -0.2973,-0.10409 -0.88794,-0.23937 -1.31261,-0.30909 -0.87284,-0.14257 -1.95499,-0.60777 -2.17719,-0.93559 -0.0694,-0.10409 -0.19357,-0.25497 -0.27503,-0.33926 -0.47927,-0.49018 -0.62129,-1.43856 -0.30786,-2.05611 0.26656,-0.52452 0.84685,-1.05912 1.33606,-1.22928 0.5448,-0.18941 1.39376,-0.19356 2.17092,0 0.54354,0.13008 0.60782,0.13216 0.77842,0.0208 0.16758,-0.10619 0.18114,-0.15298 0.13797,-0.47975 -0.0258,-0.19982 -0.11609,-0.4371 -0.19936,-0.52972 -0.1472,-0.16339 -0.54283,-0.85545 -1.18575,-2.07277 -0.1735,-0.32885 -0.4151,-0.72953 -0.53672,-0.88979 -0.12165,-0.16131 -0.26624,-0.41212 -0.321,-0.5599 -0.0548,-0.14673 -0.17741,-0.36945 -0.27276,-0.49224 -0.0952,-0.12385 -0.31985,-0.50995 -0.49872,-0.85858 -0.17898,-0.34968 -0.40184,-0.73578 -0.49511,-0.85859 -0.0931,-0.12384 -0.26799,-0.42564 -0.38858,-0.67229 -0.12054,-0.24663 -0.29357,-0.54844 -0.38518,-0.67228 -0.0911,-0.12385 -0.28259,-0.45687 -0.42522,-0.74098 -0.14244,-0.28411 -0.34439,-0.63691 -0.44853,-0.78468 -0.10399,-0.14674 -0.26697,-0.43502 -0.3623,-0.64004 -0.0952,-0.20502 -0.22782,-0.41731 -0.29542,-0.47144 -0.0673,-0.0521 -0.21541,-0.27266 -0.32865,-0.486 -0.32059,-0.60361 -1.35936,-2.28194 -1.46409,-2.36603 -0.0517,-0.0416 -0.25236,-0.0936 -0.44614,-0.12181 -0.34139,-0.0416 -0.3623,-0.0416 -0.68712,0.29556 -0.46063,0.46936 -1.293626,0.87106 -1.809796,0.87106 -0.47326,0.001 -0.800362,-0.10409 -1.237527,-0.38713 -0.363754,-0.23729 -0.664139,-0.55678 -0.856681,-0.90958 -0.177104,-0.3247 -0.164272,-1.38319 0.02174,-1.83975 0.322863,-0.78989 1.334924,-1.7055 2.504558,-2.26435 l 0.810726,-0.38714 1.10953,-0.0313 c 1.28479,-0.0312 1.51764,0.0208 2.51928,0.4985 0.55401,0.26745 0.81206,0.45166 1.27401,0.91061 0.67678,0.67229 1.02675,1.12146 1.39427,1.78927 0.14646,0.26538 0.32575,0.54845 0.39894,0.62754 0.0735,0.0833 0.27607,0.42878 0.45121,0.77533 0.17494,0.34654 0.40536,0.75346 0.51177,0.90332 0.10658,0.1509 0.27824,0.45687 0.38144,0.68062 0.1035,0.22375 0.26841,0.50994 0.36707,0.63482 0.0983,0.12592 0.27389,0.42148 0.3892,0.65772 0.11548,0.23625 0.25558,0.47352 0.31189,0.52765 0.0559,0.052 0.1975,0.28097 0.31405,0.50369 0.11684,0.22271 0.41582,0.75243 0.66466,1.17683 0.24864,0.4246 0.45236,0.79717 0.45236,0.82839 0,0.0312 0.14202,0.27058 0.31551,0.52972 0.17349,0.26017 0.39479,0.64626 0.49168,0.85753 0.0963,0.21231 0.28488,0.53075 0.41789,0.70872 0.13291,0.17691 0.24171,0.36111 0.24171,0.40794 0,0.052 0.17379,0.35177 0.38609,0.67646 0.21221,0.32575 0.38611,0.62338 0.38611,0.66188 0,0.1041 0.49676,0.80967 0.66714,0.95328 0.0787,0.0625 0.27421,0.14051 0.43403,0.16339 0.27028,0.0416 0.29761,0.0312 0.39325,-0.19565 0.0559,-0.13008 0.12743,-0.37257 0.15734,-0.53699 0.13219,-0.72537 0.28042,-1.00636 0.69157,-1.31181 0.21873,-0.16234 0.43578,-0.3247 0.48227,-0.36112 0.56258,-0.44022 1.70331,-0.45582 2.17781,-0.0312 0.11473,0.10409 0.30453,0.23519 0.42223,0.29451 0.24285,0.12182 0.66683,0.91269 0.72822,1.35821 0.0217,0.1509 0,0.46 -0.0466,0.68583 -0.0466,0.22583 -0.16945,0.84816 -0.27276,1.38204 -0.18291,0.946 -0.35898,1.54587 -0.50172,1.71248 -0.0393,0.0416 -0.16252,0.5526 -0.27493,1.12686 -0.11289,0.57448 -0.25454,1.12001 -0.31583,1.21201 -0.061,0.0936 -0.2151,0.56822 -0.34221,1.05912 -0.30785,1.1891 -0.4477,1.47976 -0.93503,1.94381 -0.6039,0.57551 -0.74736,0.63067 -1.6887,0.64835 -0.44594,0 -0.89767,0 -1.00378,-0.0208 z m 27.719196,24.29252 c 3.65014,-0.0313 3.93824,-0.0416 4.50995,-0.18525 0.55555,-0.14257 0.8251,-0.15714 2.9833,-0.15714 2.29463,0 2.39428,0 3.03144,0.18524 l 0.65865,0.18524 h 11.04425 c 7.39597,0 11.0929,-0.0208 11.19181,-0.0728 0.0818,-0.0416 0.20413,-0.19357 0.27494,-0.33511 0.11572,-0.23624 0.12597,-1.22094 0.12597,-11.42355 -0.001,-9.48294 -0.0217,-11.20832 -0.11177,-11.45299 -0.17276,-0.45375 -0.75886,-1.52618 -1.02809,-1.88325 -0.13478,-0.179 -0.26799,-0.39755 -0.29615,-0.486 -0.029,-0.0833 -0.16831,-0.31638 -0.31189,-0.50682 -0.14316,-0.19149 -0.31335,-0.46831 -0.3771,-0.6161 -0.0631,-0.14882 -0.2973,-0.52971 -0.5183,-0.84816 -0.4306,-0.62026 -0.80812,-1.23969 -1.25929,-2.06673 -0.15559,-0.28411 -0.33633,-0.56926 -0.40268,-0.63379 -0.0673,-0.0625 -0.20629,-0.30179 -0.3126,-0.52867 -0.1051,-0.22688 -0.30568,-0.5495 -0.4451,-0.71704 -0.13882,-0.16651 -0.33197,-0.45374 -0.42712,-0.63482 -0.0942,-0.18109 -0.47593,-0.81903 -0.8458,-1.41744 -0.36953,-0.5984 -0.74767,-1.23135 -0.84051,-1.40734 -0.0921,-0.17484 -0.28374,-0.47664 -0.42369,-0.66813 -0.14129,-0.19149 -0.34873,-0.5318 -0.46312,-0.75554 -0.11399,-0.2248 -0.3305,-0.59424 -0.47999,-0.82215 -0.84012,-1.28048 -1.03142,-1.58009 -1.03142,-1.61559 0,-0.0208 -0.16831,-0.29764 -0.37417,-0.61401 -0.20632,-0.31637 -0.48819,-0.77635 -0.62667,-1.023 -0.13882,-0.24665 -0.29978,-0.50058 -0.35754,-0.56407 -0.0579,-0.0624 -0.23114,-0.34967 -0.38642,-0.63482 -0.15558,-0.28515 -0.3272,-0.56926 -0.38238,-0.63171 -0.0517,-0.0625 -0.20847,-0.31324 -0.34211,-0.55781 -0.33776,-0.6213 -0.80067,-1.12489 -1.16442,-1.26581 -0.27638,-0.10827 -1.61241,-0.11762 -13.40044,-0.11762 -11.94408,0 -13.11679,0.0208 -13.35882,0.12181 -0.14575,0.0625 -0.31623,0.19149 -0.37834,0.27786 -0.0994,0.13633 -0.11326,2.90042 -0.11326,21.72761 v 21.57129 l 0.27534,0.29451 c 0.31954,0.34239 0.43993,0.36633 1.65503,0.32679 0.44573,-0.0208 2.5654,-0.0416 4.70999,-0.052 z"
       style="fill:#0f1c12;fill-opacity:1;stroke-width:0.0569587"
       id="path3526" />
  </g>
  <metadata
     id="metadata822">
    <rdf:RDF>
      <cc:Work
         rdf:about="">
        <dc:title>Waste-Icon</dc:title>
      </cc:Work>
    </rdf:RDF>
  </metadata>
</svg>
