<svg width="375" height="375" viewBox="0 0 375 375" fill="none" xmlns="http://www.w3.org/2000/svg">
<path d="M187.5 0C235.785 5.75796e-07 282.209 18.6276 317.103 52.0031C351.996 85.3786 372.669 130.929 374.815 179.166C376.961 227.404 360.415 274.61 328.623 310.952C296.832 347.295 252.245 369.971 204.151 374.259C156.056 378.547 108.161 364.116 70.4421 333.971C32.7227 303.826 8.08671 260.291 1.66541 212.435C-4.75589 164.579 7.53252 116.09 35.9712 77.0678C64.4099 38.0458 106.806 11.4993 154.33 2.95731L170.075 90.5549C145.109 95.0422 122.838 108.988 107.898 129.487C92.9584 149.986 86.5029 175.459 89.8762 200.599C93.2495 225.739 106.191 248.609 126.006 264.445C145.821 280.281 170.982 287.862 196.247 285.61C221.512 283.357 244.935 271.444 261.636 252.353C278.337 233.261 287.029 208.463 285.901 183.122C284.774 157.782 273.914 133.853 255.584 116.32C237.253 98.7869 212.866 89.0013 187.5 89.0013L187.5 0Z" fill="white"/>
<path d="M153.259 3.15308C165.951 0.795575 178.853 -0.244845 191.759 0.0483727L189.737 89.0267C182.957 88.8727 176.18 89.4193 169.512 90.6577L153.259 3.15308Z" fill="#BEF3C0"/>
</svg>
