<svg width="28" height="28" viewBox="0 0 28 28" fill="none" xmlns="http://www.w3.org/2000/svg">
<rect y="-0.000244141" width="28" height="28" rx="4" fill="#83D187"/>
<path d="M22.797 19.4411C22.5191 19.248 22.2746 19.0108 22.0729 18.739C21.5902 18.1905 20.9759 17.5103 19.835 17.5103C18.694 17.5103 18.1016 18.1686 17.597 18.761C17.0923 19.3534 16.7632 19.7045 16.0172 19.7045C15.2712 19.7045 14.8982 19.2876 14.4375 18.761C13.9767 18.2344 13.3624 17.5103 12.1995 17.5103C11.0366 17.5103 10.4662 18.1686 9.96149 18.761C9.45686 19.3534 9.12773 19.7045 8.38175 19.7045C7.63576 19.7045 7.26275 19.2876 6.802 18.761C6.48879 18.3473 6.09273 18.0036 5.63912 17.7517C5.42099 17.6426 5.15578 17.731 5.04672 17.9492C4.93765 18.1673 5.02606 18.4325 5.24419 18.5416C5.58868 18.7492 5.89333 19.0167 6.14375 19.3314C6.64838 19.9238 7.24078 20.5821 8.38175 20.5821C9.52271 20.5821 10.1151 19.9239 10.6197 19.3314C11.1244 18.739 11.4535 18.388 12.1995 18.388C12.9455 18.388 13.3185 18.8049 13.7792 19.3314C14.24 19.858 14.8543 20.5821 16.0172 20.5821C17.1801 20.5821 17.7505 19.9239 18.2552 19.3314C18.7598 18.739 19.089 18.388 19.835 18.388C20.5809 18.388 20.9539 18.8049 21.4147 19.3314C21.6704 19.6598 21.9736 19.9482 22.3143 20.1871C22.5203 20.3204 22.7953 20.2615 22.9286 20.0555C23.062 19.8495 23.003 19.5744 22.797 19.4411Z" fill="#DDFFDF"/>
<path d="M22.797 16.15C22.5191 15.9569 22.2746 15.7197 22.0729 15.4479C21.5902 14.8994 20.9759 14.2192 19.835 14.2192C18.694 14.2192 18.1016 14.8774 17.597 15.4699C17.0923 16.0623 16.7632 16.4133 16.0172 16.4133C15.2712 16.4133 14.8982 15.9964 14.4375 15.4699C13.9767 14.9433 13.3624 14.2192 12.1995 14.2192C11.0366 14.2192 10.4662 14.8774 9.96149 15.4699C9.45686 16.0623 9.12773 16.4133 8.38175 16.4133C7.63576 16.4133 7.26275 15.9964 6.802 15.4699C6.48879 15.0562 6.09273 14.7125 5.63912 14.4606C5.42099 14.3515 5.15578 14.4399 5.04672 14.658C4.93765 14.8762 5.02606 15.1414 5.24419 15.2504C5.58868 15.4581 5.89333 15.7256 6.14375 16.0403C6.64838 16.6327 7.24078 17.291 8.38175 17.291C9.52271 17.291 10.1151 16.6327 10.6197 16.0403C11.1244 15.4479 11.4535 15.0968 12.1995 15.0968C12.9455 15.0968 13.3185 15.5137 13.7792 16.0403C14.24 16.5669 14.8543 17.291 16.0172 17.291C17.1801 17.291 17.7505 16.6327 18.2552 16.0403C18.7598 15.4479 19.089 15.0968 19.835 15.0968C20.5809 15.0968 20.9539 15.5137 21.4147 16.0403C21.6704 16.3686 21.9736 16.657 22.3143 16.896C22.5203 17.0293 22.7953 16.9704 22.9286 16.7643C23.062 16.5584 23.003 16.2833 22.797 16.15Z" fill="#DDFFDF"/>
<path d="M22.797 12.6393C22.5191 12.4462 22.2746 12.209 22.0729 11.9372C21.5902 11.3887 20.9759 10.7085 19.835 10.7085C18.694 10.7085 18.1016 11.3667 17.597 11.9592C17.0923 12.5516 16.7632 12.9026 16.0172 12.9026C15.2712 12.9026 14.8982 12.4857 14.4375 11.9592C13.9767 11.4326 13.3624 10.7085 12.1995 10.7085C11.0366 10.7085 10.4662 11.3667 9.96149 11.9592C9.45686 12.5516 9.12773 12.9026 8.38175 12.9026C7.63576 12.9026 7.26275 12.4857 6.802 11.9592C6.48879 11.5455 6.09273 11.2018 5.63912 10.9499C5.42099 10.8408 5.15578 10.9292 5.04672 11.1474C4.93765 11.3655 5.02606 11.6307 5.24419 11.7398C5.58868 11.9474 5.89333 12.2149 6.14375 12.5296C6.64838 13.122 7.24078 13.7803 8.38175 13.7803C9.52271 13.7803 10.1151 13.1221 10.6197 12.5296C11.1244 11.9372 11.4535 11.5862 12.1995 11.5862C12.9455 11.5862 13.3185 12.0031 13.7792 12.5296C14.24 13.0562 14.8543 13.7803 16.0172 13.7803C17.1801 13.7803 17.7505 13.1221 18.2552 12.5296C18.7599 11.9372 19.089 11.5862 19.835 11.5862C20.5809 11.5862 20.9539 12.0031 21.4147 12.5296C21.6704 12.858 21.9736 13.1463 22.3143 13.3853C22.5203 13.5186 22.7953 13.4597 22.9286 13.2536C23.062 13.0477 23.003 12.7726 22.797 12.6393Z" fill="#DDFFDF"/>
<path d="M5.24436 8.4487C5.58886 8.65634 5.8935 8.92385 6.14392 9.23857C6.64855 9.83098 7.24096 10.4892 8.38192 10.4892C9.52288 10.4892 10.1152 9.83102 10.6199 9.23857C11.1245 8.64617 11.4537 8.29512 12.1997 8.29512C12.9456 8.29512 13.3187 8.71202 13.7794 9.23857C14.2401 9.76517 14.8545 10.4892 16.0174 10.4892C17.1803 10.4892 17.7507 9.83102 18.2554 9.23857C18.76 8.64617 19.0891 8.29512 19.8351 8.29512C20.5811 8.29512 20.9541 8.71202 21.4149 9.23857C21.6706 9.5669 21.9738 9.85529 22.3144 10.0943C22.5204 10.2276 22.7955 10.1686 22.9288 9.96264C23.0621 9.75664 23.0032 9.48157 22.7971 9.34827C22.5192 9.15513 22.2747 8.91797 22.0731 8.64617C21.5904 8.09766 20.976 7.41748 19.8351 7.41748C18.6942 7.41748 18.1018 8.07569 17.5971 8.66814C17.0925 9.26054 16.7633 9.61159 16.0173 9.61159C15.2714 9.61159 14.8983 9.19469 14.4376 8.66814C13.9769 8.14154 13.3625 7.41748 12.1996 7.41748C11.0367 7.41748 10.4663 8.07569 9.96162 8.66814C9.45699 9.26054 9.12786 9.61159 8.38188 9.61159C7.63589 9.61159 7.26296 9.19469 6.80218 8.66809C6.48897 8.25443 6.0929 7.91069 5.63929 7.65879C5.42116 7.54973 5.15595 7.63813 5.04689 7.85626C4.93783 8.07439 5.02627 8.33964 5.24436 8.4487Z" fill="#DDFFDF"/>
</svg>
