<svg width="29" height="28" viewBox="0 0 29 28" fill="none" xmlns="http://www.w3.org/2000/svg">
<rect x="0.0327148" y="-0.000244141" width="28" height="28" rx="4" fill="#83D187"/>
<mask id="mask0_495_106" style="mask-type:alpha" maskUnits="userSpaceOnUse" x="2" y="2" width="24" height="24">
<rect x="2" y="2" width="24" height="24" fill="#D9D9D9"/>
</mask>
<g mask="url(#mask0_495_106)">
<path d="M12.85 23.525C11.95 22.875 10.9877 22.35 9.963 21.95C8.93767 21.55 7.86667 21.275 6.75 21.125C6.25 21.0583 5.83333 20.8457 5.5 20.487C5.16667 20.129 5 19.7167 5 19.25V12.2C5 11.5667 5.21667 11.0457 5.65 10.637C6.08333 10.229 6.59167 10.075 7.175 10.175C8.45833 10.3917 9.67933 10.7833 10.838 11.35C11.996 11.9167 13.05 12.65 14 13.55C14.95 12.65 16.0043 11.9167 17.163 11.35C18.321 10.7833 19.5417 10.3917 20.825 10.175C21.4083 10.075 21.9167 10.229 22.35 10.637C22.7833 11.0457 23 11.5667 23 12.2V19.25C23 19.7167 22.8333 20.129 22.5 20.487C22.1667 20.8457 21.75 21.0583 21.25 21.125C20.1333 21.275 19.0627 21.55 18.038 21.95C17.0127 22.35 16.05 22.875 15.15 23.525C14.8167 23.775 14.4333 23.9 14 23.9C13.5667 23.9 13.1833 23.775 12.85 23.525ZM14 21.9C15.05 21.1167 16.1667 20.4917 17.35 20.025C18.5333 19.5583 19.75 19.25 21 19.1V12.2C19.7833 12.4167 18.5877 12.854 17.413 13.512C16.2377 14.1707 15.1 15.05 14 16.15C12.9 15.05 11.7627 14.1707 10.588 13.512C9.41267 12.854 8.21667 12.4167 7 12.2V19.1C8.25 19.25 9.46667 19.5583 10.65 20.025C11.8333 20.4917 12.95 21.1167 14 21.9ZM14 11C12.9 11 11.9583 10.6083 11.175 9.825C10.3917 9.04167 10 8.1 10 7C10 5.9 10.3917 4.95833 11.175 4.175C11.9583 3.39167 12.9 3 14 3C15.1 3 16.0417 3.39167 16.825 4.175C17.6083 4.95833 18 5.9 18 7C18 8.1 17.6083 9.04167 16.825 9.825C16.0417 10.6083 15.1 11 14 11ZM14 9C14.55 9 15.021 8.804 15.413 8.412C15.8043 8.02067 16 7.55 16 7C16 6.45 15.8043 5.979 15.413 5.587C15.021 5.19567 14.55 5 14 5C13.45 5 12.9793 5.19567 12.588 5.587C12.196 5.979 12 6.45 12 7C12 7.55 12.196 8.02067 12.588 8.412C12.9793 8.804 13.45 9 14 9Z" fill="white" fill-opacity="0.8"/>
</g>
</svg>
