<svg width="28" height="28" viewBox="0 0 28 28" fill="none" xmlns="http://www.w3.org/2000/svg">
<rect y="-0.000244141" width="28" height="28" rx="4" fill="#83D187"/>
<path d="M22.8737 17.8048V18.7837C22.8737 19.4315 22.4432 19.9855 21.8399 20.2018C21.8402 20.2265 21.8408 20.251 21.8408 20.2756V22.9449C23.0952 22.6976 24.0408 21.6395 24.0408 20.3756V17.8046L22.8737 17.8048Z" fill="#DDFFDF"/>
<path d="M14.7675 10.4482V9.42467C14.7675 8.53869 14.4219 7.67995 13.794 7.00633C13.2062 6.37576 12.4331 5.97509 11.5976 5.86391C11.4127 5.69388 11.075 5.38366 10.7364 5.07403C10.4436 4.80615 10.2096 4.59277 10.0403 4.43984C9.94329 4.35214 9.86196 4.27908 9.80428 4.2282C9.67809 4.11687 9.44341 3.90944 9.09566 4.04352L8.7235 4.18732L8.77233 6.38547L8.68062 6.44838C8.08217 6.8592 7.68132 7.49151 7.57833 8.18557L5.98195 9.19723L5.97661 9.89231C5.9728 10.4224 6.18703 10.9214 6.5801 11.2975C6.97332 11.6737 7.497 11.8808 8.05501 11.8808H9.27068V12.9001C9.27068 13.4064 9.35628 13.9066 9.52474 14.387L10.4259 16.9553V20.8564C9.48049 21.0674 8.77309 21.875 8.77095 22.8362L8.76897 22.9982L12.2484 22.9986C12.3436 22.1329 13.0121 21.4261 13.8855 21.2288V20.5485C13.8855 18.6872 15.4793 17.1731 17.4384 17.1731H17.5243V18.2819H17.4384C16.1229 18.2819 15.0527 19.2987 15.0527 20.5485V22.2825H14.3812C13.9194 22.2825 13.5311 22.5888 13.4295 22.9987L20.7081 22.9999V20.2757C20.7081 17.8556 19.7532 15.5463 18.0193 13.7733L14.7675 10.4482Z" fill="#DDFFDF"/>
</svg>
