<svg width="29" height="28" viewBox="0 0 29 28" fill="none" xmlns="http://www.w3.org/2000/svg">
<rect x="0.0327148" y="-0.000244141" width="28" height="28" rx="4" fill="#83D187"/>
<mask id="mask0_495_105" style="mask-type:alpha" maskUnits="userSpaceOnUse" x="2" y="3" width="24" height="24">
<rect x="2" y="3" width="24" height="24" fill="#D9D9D9"/>
</mask>
<g mask="url(#mask0_495_105)">
<path d="M8 23C7.16667 23 6.45833 22.7083 5.875 22.125C5.29167 21.5417 5 20.8333 5 20C4.45 20 3.97933 19.8043 3.588 19.413C3.196 19.021 3 18.55 3 18V9C3 8.45 3.196 7.97933 3.588 7.588C3.97933 7.196 4.45 7 5 7H17C17.55 7 18.021 7.196 18.413 7.588C18.8043 7.97933 19 8.45 19 9V11H21.5C21.6667 11 21.8167 11.0333 21.95 11.1C22.0833 11.1667 22.2 11.2667 22.3 11.4L24.8 14.725C24.8667 14.8083 24.9167 14.9 24.95 15C24.9833 15.1 25 15.2083 25 15.325V19C25 19.2833 24.904 19.5207 24.712 19.712C24.5207 19.904 24.2833 20 24 20H23C23 20.8333 22.7083 21.5417 22.125 22.125C21.5417 22.7083 20.8333 23 20 23C19.1667 23 18.4583 22.7083 17.875 22.125C17.2917 21.5417 17 20.8333 17 20H11C11 20.8333 10.7083 21.5417 10.125 22.125C9.54167 22.7083 8.83333 23 8 23ZM8 21C8.28333 21 8.521 20.904 8.713 20.712C8.90433 20.5207 9 20.2833 9 20C9 19.7167 8.90433 19.4793 8.713 19.288C8.521 19.096 8.28333 19 8 19C7.71667 19 7.479 19.096 7.287 19.288C7.09567 19.4793 7 19.7167 7 20C7 20.2833 7.09567 20.5207 7.287 20.712C7.479 20.904 7.71667 21 8 21ZM5 9V18H5.8C6.08333 17.7 6.40833 17.4583 6.775 17.275C7.14167 17.0917 7.55 17 8 17C8.45 17 8.85833 17.0917 9.225 17.275C9.59167 17.4583 9.91667 17.7 10.2 18H17V9H5ZM20 21C20.2833 21 20.5207 20.904 20.712 20.712C20.904 20.5207 21 20.2833 21 20C21 19.7167 20.904 19.4793 20.712 19.288C20.5207 19.096 20.2833 19 20 19C19.7167 19 19.4793 19.096 19.288 19.288C19.096 19.4793 19 19.7167 19 20C19 20.2833 19.096 20.5207 19.288 20.712C19.4793 20.904 19.7167 21 20 21ZM19 16H23.25L21 13H19V16Z" fill="white" fill-opacity="0.8"/>
</g>
</svg>
