<svg width="28" height="28" viewBox="0 0 28 28" fill="none" xmlns="http://www.w3.org/2000/svg">
<rect y="-0.000244141" width="28" height="28" rx="4" fill="#83D187"/>
<path d="M14.9395 18.5974H15.8184V20.9998H14.9395V18.5974Z" fill="#DDFFDF"/>
<path d="M13.1816 18.5974H14.0605V20.9998H13.1816V18.5974Z" fill="#DDFFDF"/>
<path d="M17.459 5.99976H11.541C11.2983 5.99976 11.1016 6.19651 11.1016 6.43921V20.9998H12.3027V18.158C12.3027 17.9153 12.4995 17.7185 12.7422 17.7185H16.2578C16.5005 17.7185 16.6973 17.9153 16.6973 18.158V20.9998H17.8984V6.43921C17.8984 6.19651 17.7017 5.99976 17.459 5.99976ZM13.1816 16.4001C13.1816 16.6428 12.9849 16.8396 12.7422 16.8396C12.4995 16.8396 12.3027 16.6428 12.3027 16.4001V15.5212C12.3027 15.2785 12.4995 15.0818 12.7422 15.0818C12.9849 15.0818 13.1816 15.2785 13.1816 15.5212V16.4001ZM13.1816 13.7634C13.1816 14.0061 12.9849 14.2029 12.7422 14.2029C12.4995 14.2029 12.3027 14.0061 12.3027 13.7634V12.8845C12.3027 12.6418 12.4995 12.4451 12.7422 12.4451C12.9849 12.4451 13.1816 12.6418 13.1816 12.8845V13.7634ZM14.9395 16.4001C14.9395 16.6428 14.7427 16.8396 14.5 16.8396C14.2573 16.8396 14.0605 16.6428 14.0605 16.4001V15.5212C14.0605 15.2785 14.2573 15.0818 14.5 15.0818C14.7427 15.0818 14.9395 15.2785 14.9395 15.5212V16.4001ZM14.9395 13.7634C14.9395 14.0061 14.7427 14.2029 14.5 14.2029C14.2573 14.2029 14.0605 14.0061 14.0605 13.7634V12.8845C14.0605 12.6418 14.2573 12.4451 14.5 12.4451C14.7427 12.4451 14.9395 12.6418 14.9395 12.8845V13.7634ZM16.6973 16.4001C16.6973 16.6428 16.5005 16.8396 16.2578 16.8396C16.0151 16.8396 15.8184 16.6428 15.8184 16.4001V15.5212C15.8184 15.2785 16.0151 15.0818 16.2578 15.0818C16.5005 15.0818 16.6973 15.2785 16.6973 15.5212V16.4001ZM16.6973 13.7634C16.6973 14.0061 16.5005 14.2029 16.2578 14.2029C16.0151 14.2029 15.8184 14.0061 15.8184 13.7634V12.8845C15.8184 12.6418 16.0151 12.4451 16.2578 12.4451C16.5005 12.4451 16.6973 12.6418 16.6973 12.8845V13.7634ZM13.1816 11.1267C13.1816 11.3694 12.9849 11.5662 12.7422 11.5662C12.4995 11.5662 12.3027 11.3694 12.3027 11.1267V10.2478C12.3027 10.0051 12.4995 9.80835 12.7422 9.80835C12.9849 9.80835 13.1816 10.0051 13.1816 10.2478V11.1267ZM14.9395 11.1267C14.9395 11.3694 14.7427 11.5662 14.5 11.5662C14.2573 11.5662 14.0605 11.3694 14.0605 11.1267V10.2478C14.0605 10.0051 14.2573 9.80835 14.5 9.80835C14.7427 9.80835 14.9395 10.0051 14.9395 10.2478V11.1267ZM16.6973 11.1267C16.6973 11.3694 16.5005 11.5662 16.2578 11.5662C16.0151 11.5662 15.8184 11.3694 15.8184 11.1267V10.2478C15.8184 10.0051 16.0151 9.80835 16.2578 9.80835C16.5005 9.80835 16.6973 10.0051 16.6973 10.2478V11.1267ZM13.1816 8.48999C13.1816 8.73269 12.9849 8.92944 12.7422 8.92944C12.4995 8.92944 12.3027 8.73269 12.3027 8.48999V7.61108C12.3027 7.36839 12.4995 7.17163 12.7422 7.17163C12.9849 7.17163 13.1816 7.36839 13.1816 7.61108V8.48999ZM14.9395 8.48999C14.9395 8.73269 14.7427 8.92944 14.5 8.92944C14.2573 8.92944 14.0605 8.73269 14.0605 8.48999V7.61108C14.0605 7.36839 14.2573 7.17163 14.5 7.17163C14.7427 7.17163 14.9395 7.36839 14.9395 7.61108V8.48999ZM16.6973 8.48999C16.6973 8.73269 16.5005 8.92944 16.2578 8.92944C16.0151 8.92944 15.8184 8.73269 15.8184 8.48999V7.61108C15.8184 7.36839 16.0151 7.17163 16.2578 7.17163C16.5005 7.17163 16.6973 7.36839 16.6973 7.61108V8.48999Z" fill="#DDFFDF"/>
<path d="M21.5605 11.8591H18.7773V20.9998H21.5605C21.8032 20.9998 22 20.803 22 20.5603V12.2986C22 12.0559 21.8032 11.8591 21.5605 11.8591ZM20.8281 17.572C20.8281 17.8147 20.6314 18.0115 20.3887 18.0115C20.146 18.0115 19.9492 17.8147 19.9492 17.572V16.6931C19.9492 16.4504 20.146 16.2537 20.3887 16.2537C20.6314 16.2537 20.8281 16.4504 20.8281 16.6931V17.572ZM20.8281 14.9353C20.8281 15.178 20.6314 15.3748 20.3887 15.3748C20.146 15.3748 19.9492 15.178 19.9492 14.9353V14.0564C19.9492 13.8137 20.146 13.6169 20.3887 13.6169C20.6314 13.6169 20.8281 13.8137 20.8281 14.0564V14.9353Z" fill="#DDFFDF"/>
<path d="M7.43945 11.8591C7.19676 11.8591 7 12.0559 7 12.2986V20.5603C7 20.803 7.19676 20.9998 7.43945 20.9998H10.2227V11.8591H7.43945ZM9.05078 17.572C9.05078 17.8147 8.85402 18.0115 8.61133 18.0115C8.36863 18.0115 8.17188 17.8147 8.17188 17.572V16.6931C8.17188 16.4504 8.36863 16.2537 8.61133 16.2537C8.85402 16.2537 9.05078 16.4504 9.05078 16.6931V17.572ZM9.05078 14.9353C9.05078 15.178 8.85402 15.3748 8.61133 15.3748C8.36863 15.3748 8.17188 15.178 8.17188 14.9353V14.0564C8.17188 13.8137 8.36863 13.6169 8.61133 13.6169C8.85402 13.6169 9.05078 13.8137 9.05078 14.0564V14.9353Z" fill="#DDFFDF"/>
</svg>
