<?xml version="1.0" encoding="UTF-8" standalone="no"?>
<svg
   version="1.0"
   width="1469.3334"
   height="1306.6666"
   viewBox="0 0 1102 979.99997"
   preserveAspectRatio="xMidYMid"
   id="svg60"
   sodipodi:docname="truck.svg"
   inkscape:version="1.2.1 (9c6d41e410, 2022-07-14)"
   xmlns:inkscape="http://www.inkscape.org/namespaces/inkscape"
   xmlns:sodipodi="http://sodipodi.sourceforge.net/DTD/sodipodi-0.dtd"
   xmlns="http://www.w3.org/2000/svg"
   xmlns:svg="http://www.w3.org/2000/svg">
  <defs
     id="defs64">
    <rect
       x="960.62147"
       y="69.20904"
       width="163.33333"
       height="130.11299"
       id="rect278" />
  </defs>
  <sodipodi:namedview
     id="namedview62"
     pagecolor="#ffffff"
     bordercolor="#000000"
     borderopacity="0.25"
     inkscape:showpageshadow="2"
     inkscape:pageopacity="0.0"
     inkscape:pagecheckerboard="0"
     inkscape:deskcolor="#d1d1d1"
     inkscape:document-units="pt"
     showgrid="false"
     showguides="true"
     inkscape:zoom="0.25542429"
     inkscape:cx="328.86458"
     inkscape:cy="262.30865"
     inkscape:window-width="1280"
     inkscape:window-height="961"
     inkscape:window-x="-8"
     inkscape:window-y="-8"
     inkscape:window-maximized="1"
     inkscape:current-layer="g58" />
  <metadata
     id="metadata34">
Created by potrace 1.16, written by Peter Selinger 2001-2019
</metadata>
  <g
     transform="matrix(0.1,0,0,-0.1,-2.9362909,963.8504)"
     fill="#000000"
     stroke="none"
     id="g58">
    <path
       style="fill:#000000;stroke-width:16.9973"
       d="m 3077.9567,4239.9663 c 808.6104,163.3854 1427.2569,709.7995 1571.4553,913.0046 169.4222,238.7508 -141.0507,-594.2125 -429.6946,-777.7445 -326.3541,-207.5095 -1516.5341,-210.986 -1141.7607,-135.2601 z"
       id="path551"
       sodipodi:nodetypes="ssss" />
    <path
       style="fill:#000000;stroke-width:16.9973"
       d="m 7703.5831,4248.7824 c -808.6104,163.3853 -1427.2569,709.7994 -1571.4553,913.0045 -169.4222,238.7508 141.0507,-594.2125 429.6946,-777.7445 326.3541,-207.5094 1516.534,-210.9859 1141.7607,-135.26 z"
       id="path551-4"
       sodipodi:nodetypes="ssss" />
    <path
       d="m 1846.106,7515.8782 c -26.8974,-26.8974 -26.8974,-44.3807 -26.8974,-1317.9731 V 4906.8293 l 78.0025,8.0692 c 41.691,5.3795 79.3474,9.4141 83.382,8.0692 60.5192,0 86.0717,-8.0692 122.3832,-39.0012 80.6923,-68.5884 83.382,-87.4166 52.45,-445.1522 -14.7936,-174.8332 -29.5872,-346.9766 -33.6218,-381.9432 l -8.0692,-64.5538 h 108.9345 c 80.6922,0 107.5897,4.0346 107.5897,17.4833 0,10.759 39.0012,369.8394 87.4165,800.198 92.7961,836.5095 94.141,841.889 177.523,918.5466 78.0025,73.9679 135.8319,88.7615 461.2906,125.073 1048.999,118.3486 3577.3557,118.3486 4626.3548,0 330.8382,-36.3115 399.4266,-56.4846 472.0496,-135.8319 73.9679,-78.0025 76.6576,-91.4512 166.7639,-907.7877 48.4154,-430.3586 87.4166,-789.439 87.4166,-800.198 0,-13.4487 26.8974,-17.4833 107.5897,-17.4833 h 108.9345 l -8.0692,64.5538 c -4.0347,34.9666 -18.8282,207.11 -33.6218,381.9432 -24.2077,277.0434 -25.5525,325.4587 -9.4141,364.46 24.2077,56.4845 95.4858,117.0037 141.2114,119.6934 53.7948,2.6898 56.4846,2.6898 134.4871,-8.0692 l 69.9332,-9.4141 v 1292.4207 c 0,1273.5924 0,1291.0757 -26.8974,1317.9731 -26.8974,26.8974 -44.3807,26.8974 -3523.5609,26.8974 -3479.1802,0 -3496.6635,0 -3523.561,-26.8974 z"
       id="path36"
       style="stroke-width:1.34487" />
    <path
       d="M 4482.0524,5833.4451 C 3808.2722,5817.3067 3258.2202,5782.34 2895.1051,5732.5798 2720.2719,5709.717 2658.4079,5680.1299 2622.0964,5603.4723 2584.44,5522.78 2378.6748,3590.201 2330.2595,2855.9016 c -63.209,-958.8927 -75.3128,-1248.0399 -68.5884,-1569.4639 l 1.3448,453.2213 H 5369.667 8476.318 l 1.3449,-110.2793 c 6.7244,314.6997 -6.7243,287.8023 -68.5884,1233.2463 -48.4153,727.575 -254.1805,2661.4989 -291.8369,2740.8463 -36.3115,75.3127 -99.5204,106.2447 -266.2844,129.1075 -668.4007,91.4512 -2069.7558,133.1422 -3368.9008,100.8653 z m 2349.4889,-321.424 c 731.6096,-14.7936 1020.7568,-29.5872 1065.1375,-52.45 16.1385,-9.4141 37.6564,-29.5872 48.4154,-45.7256 13.4487,-21.5179 51.105,-297.2164 121.0383,-884.9248 l 102.2102,-852.648 -29.5872,-22.8628 c -26.8974,-22.8628 -176.178,-24.2077 -2769.0885,-24.2077 -2592.9105,0 -2742.1911,1.3449 -2769.0886,24.2077 l -29.5871,22.8628 102.2102,852.648 c 69.9332,587.7084 107.5896,863.4069 121.0383,884.9248 33.6218,49.7602 68.5884,60.5192 274.3536,73.9679 508.3611,33.6217 2615.7733,47.0705 3762.9479,24.2077 z M 2818.4475,3360.2281 c 352.3561,-106.2448 888.9594,-345.6317 961.5824,-429.0137 56.4846,-64.5538 78.0025,-145.246 56.4846,-215.1793 -18.8282,-64.5538 -87.4166,-137.1768 -142.5563,-150.6255 -55.1397,-14.7936 -1113.5528,43.0358 -1151.2092,63.2089 -103.555,53.7948 -134.4871,118.3486 -142.5563,295.8715 -10.7589,243.4216 41.691,407.4958 145.246,458.6009 65.8987,33.6218 95.4859,30.932 273.0088,-22.8628 z m 5375.4477,22.8628 c 103.5551,-51.1051 156.005,-215.1793 145.246,-458.6009 -8.0692,-177.5229 -39.0012,-242.0767 -142.5562,-295.8715 -37.6564,-20.1731 -1096.0696,-78.0025 -1151.2093,-63.2089 -55.1397,13.4487 -123.7281,86.0717 -142.5562,150.6255 -21.518,69.9333 0,150.6255 56.4845,215.1793 72.623,82.0371 579.6392,309.3202 945.444,423.6342 182.9024,57.8295 223.2486,61.8641 289.1472,28.2423 z M 6248.117,3296.1325 c 114.314,-9.4141 331.8439,-67.2882 413.4975,-128.3103 72.4081,-84.3545 66.1384,-184.626 0.8865,-255.6149 -175.4554,60.1355 -268.0426,152.1493 -632.5026,126.5967 l -660.3314,-44.3807 -660.3315,44.3807 c -364.4599,25.5526 -576.5375,-195.8972 -642.2741,-172.118 -53.497,47.8903 -48.0731,145.3539 -39.3156,182.9091 17.4833,61.0222 229.7729,212.4425 365.6048,220.5118 137.1768,9.414 223.1889,32.2918 263.535,34.9815 180.2126,10.759 1400.2597,5.8377 1591.2314,-8.9559 z m -1514.5738,-381.0566 636.1238,-73.9678 636.1238,73.9678 c 139.4559,-5.4807 525.2731,-49.9755 611.3187,-168.6639 81.3855,-112.2604 36.8809,-167.5026 31.5014,-202.4692 -173.8592,45.2546 -263.7606,67.9746 -422.4254,89.1089 -222.3469,-22.8329 -186.773,-17.8819 -522.9906,-38.055 -294.5267,-18.8281 -372.5292,-18.8281 -665.711,0 -184.2472,10.759 -387.3227,28.2423 -453.2213,40.3462 -166.764,28.2422 -294.0766,-5.5106 -347.5836,-35.0037 -80.2238,-74.8376 -151.8505,-28.1333 -162.1224,20.0677 1.6327,134.3801 309.3202,336.36 658.9866,294.669 z"
       id="path38"
       sodipodi:nodetypes="cccccccccccccccccccsccccccccccccccccccccccccccccccccccccscccccccc"
       style="stroke-width:1.34487" />
    <path
       d="m 1753.31,4793.8602 c -154.6602,-25.5526 -184.2473,-34.9667 -208.455,-63.209 -24.2076,-28.2422 -41.691,-108.9345 -99.5204,-450.5316 -39.0012,-228.628 -69.9333,-431.7035 -69.9333,-451.8765 0,-22.8628 13.4487,-45.7256 36.3115,-64.5538 34.9667,-26.8974 48.4154,-28.2423 274.3536,-24.2077 231.3178,4.0346 239.387,5.3795 273.0088,36.3115 43.0358,40.3461 41.691,34.9667 82.0371,505.6714 40.3461,476.0842 40.3461,484.1534 6.7243,517.7751 -33.6217,33.6218 -61.864,32.2769 -294.5266,-5.3794 z"
       id="path40"
       style="stroke-width:1.34487" />
    <path
       d="m 8691.4973,4799.2396 c -33.6217,-33.6217 -33.6217,-41.6909 6.7244,-517.7751 40.3461,-470.7047 39.0012,-465.3253 82.0371,-505.6714 33.6218,-30.932 41.691,-32.2769 273.0087,-36.3115 225.9383,-4.0346 239.387,-2.6897 274.3536,24.2077 20.1731,16.1384 36.3115,41.691 36.3115,57.8294 0,16.1385 -30.932,219.2139 -69.9332,451.8765 -57.8295,349.6664 -73.9679,429.0138 -98.1756,455.9112 -25.5525,29.5871 -53.7948,37.6563 -223.2485,64.5538 -236.6972,39.0012 -247.4562,39.0012 -281.078,5.3794 z"
       id="path42"
       style="stroke-width:1.34487" />
    <path
       d="m 2107.0109,3886.0725 c -2.6897,-2.6897 -5.3795,-21.5179 -5.3795,-41.691 0,-18.8282 -17.4833,-63.2089 -39.0012,-96.8307 -21.5179,-33.6217 -36.3115,-65.8986 -32.2769,-69.9332 5.3795,-4.0346 64.5538,-8.0693 133.1422,-8.0693 h 125.073 l 6.7243,57.8295 c 4.0346,30.932 9.4141,80.6922 12.1039,110.2794 l 2.6897,53.7948 h -98.1756 c -55.1397,0 -102.2101,-2.6898 -104.8999,-5.3795 z"
       id="path44"
       style="stroke-width:1.34487" />
    <path
       d="m 8429.2476,3886.0725 c -2.6898,-5.3795 0,-51.1051 6.7243,-102.2102 6.7244,-52.4499 12.1039,-98.1755 13.4487,-103.555 0,-12.1038 247.4562,-14.7936 259.5601,-2.6897 4.0346,4.0346 -8.0693,32.2769 -26.8975,61.864 -20.173,28.2423 -39.0012,73.9679 -43.0358,100.8653 l -8.0692,49.7602 -98.1756,2.6898 c -53.7948,1.3448 -99.5204,-2.6898 -103.555,-6.7244 z"
       id="path46"
       style="stroke-width:1.34487" />
    <path
       d="m 1819.2086,2549.2711 c 0,-1043.6195 1.3449,-1096.0695 24.2077,-1116.2426 20.1731,-18.8281 53.7948,-22.8628 166.7639,-22.8628 h 141.2115 l 9.4141,246.1114 c 13.4487,341.5971 48.4153,929.3055 110.2793,1802.1266 l 8.0693,117.0037 h -127.7627 c -103.5551,0 -146.5909,6.7244 -221.9037,33.6218 -51.1051,18.8282 -96.8307,33.6217 -102.2102,33.6217 -4.0346,0 -8.0692,-492.2226 -8.0692,-1093.3798 z"
       id="path48"
       style="stroke-width:1.34487" />
    <path
       d="m 8805.8113,3607.6843 c -64.5537,-24.2077 -107.5896,-30.932 -213.8344,-30.932 l -131.7973,-1.3449 8.0692,-117.0037 c 61.8641,-872.8211 96.8307,-1460.5295 110.2794,-1802.1266 l 9.4141,-246.1114 h 143.9012 c 122.3832,0 146.5909,4.0347 165.419,24.2077 21.518,22.8628 22.8628,119.6935 22.8628,1116.2426 0,866.0967 -4.0346,1092.0349 -16.1384,1090.6901 -9.4141,-1.3449 -53.7948,-16.1385 -98.1756,-33.6218 z"
       id="path50"
       style="stroke-width:1.34487" />
    <path
       d="m 2275.1198,1618.6207 c -17.4834,-16.1385 40.3461,-420.9445 88.7614,-637.4687 28.2423,-122.38319 82.0371,-196.35107 180.2127,-246.11128 l 73.9679,-37.65638 H 5369.667 8121.2722 l 73.9679,37.65638 c 98.1755,49.76021 151.9704,123.72809 180.2127,246.11128 48.4153,216.5242 106.2447,621.3302 88.7614,637.4687 -8.0692,8.0692 -6181.0252,8.0692 -6189.0944,0 z"
       id="path52"
       sodipodi:nodetypes="cccccccccc"
       style="stroke-width:1.34487" />
    <path
       d="m 2370.6056,369.2359 c 0,-299.9061 2.6897,-352.3561 21.5179,-369.8394 17.4833,-18.8282 75.3128,-21.5179 422.2894,-21.5179 346.9766,0 404.806,2.6897 422.2893,21.5179 18.8282,17.4833 21.518,64.5538 21.518,298.5613 v 278.38819 l -278.3883,-2.68974 c -154.6601,-1.34487 -316.0445,4.03461 -360.4253,10.75896 -80.6922,13.44871 -162.7293,52.44996 -217.869,106.24478 l -30.932,28.24228 z"
       id="path54"
       sodipodi:nodetypes="scscscccccs"
       style="stroke-width:1.34487" />
    <path
       d="m 8335.1066,687.97025 c -48.4153,-48.41534 -133.1422,-90.10633 -215.1793,-103.55504 -44.3807,-6.72435 -205.7652,-12.10383 -360.4253,-10.75896 l -278.3882,2.68974 V 297.9578 c 0,-234.0075 2.6897,-281.078 21.5179,-298.5613 17.4834,-18.8282 75.3128,-21.5179 422.2894,-21.5179 346.9766,0 404.8061,2.6897 422.2894,21.5179 18.8282,17.4833 21.5179,69.9333 21.5179,369.8394 0,190.97164 -1.3449,348.3215 -2.6897,346.97663 -2.6898,0 -16.1385,-12.10384 -30.9321,-28.24228 z"
       id="path56"
       sodipodi:nodetypes="ccccscscscc"
       style="stroke-width:1.34487" />
    <text
       xml:space="preserve"
       transform="matrix(271.62673,0,0,-270.92659,-252478.15,28795.194)"
       id="text276"
       style="font-style:normal;font-variant:normal;font-weight:normal;font-stretch:normal;font-size:12px;font-family:'Arial Rounded MT Bold';-inkscape-font-specification:'Arial Rounded MT Bold, Normal';font-variant-ligatures:normal;font-variant-caps:normal;font-variant-numeric:normal;font-variant-east-asian:normal;white-space:pre;shape-inside:url(#rect278);fill:#000000"><tspan
         x="960.62109"
         y="80.022883"
         id="tspan667">?</tspan></text>
  </g>
</svg>
